<svg xmlns="http://www.w3.org/2000/svg" viewBox="0 0 45.3 51.9" width="45" height="52"><path d="M33.158 4.952l-1.3-.7-1.4-.7h-.5l-1.2-.5c-2.3-.8-4.7-1.1-7.1-1.1-12.6 0-22.9 10.3-22.9 22.9 0 10.9 7.8 20.4 18.5 22.4v6.6c13.7-2.1 25.8-12.9 26.7-27.2.7-8.7-3.5-17-10.8-21.7zm-16.9 5.6c.8-.1 1.6.2 2.1.9 1.8 2 1.9 4.9.4 7.1-2-.4-3.7-1.9-4.5-3.8-.3-.6-.4-1.2-.4-1.8.1-1.3 1.1-2.3 2.4-2.4zm-6.9 6.8h.4c.7 0 1.4.2 2 .5 1.9.8 3.3 2.4 3.8 4.3-1.7 1.2-4 1.4-5.9.6-.6-.3-1.1-.6-1.7-1-1.1-.7-1.4-2.2-.7-3.3.6-.8 1.4-1.3 2.1-1.1zm2.4 14.1c-.6.3-1.3.5-2 .5-1.4.1-2.6-.8-2.7-2.2-.1-.8.2-1.6.8-2.1.5-.4 1-.8 1.7-1 .7-.3 1.5-.5 2.3-.5 1.3 0 2.5.3 3.6 1-.4 1.9-1.7 3.4-3.5 4.1zm7.7 4.5c-.3.6-.6 1.1-1 1.7-1 1-2.6 1.1-3.7.1-.5-.5-.8-1.2-.8-1.9 0-.6.2-1.2.4-1.8.8-2 2.5-3.4 4.6-3.8 1.1 1.7 1.3 3.8.5 5.6zm3.8-22.8c.3-.6.6-1.1 1-1.7.5-.6 1.3-1 2.2-.9 1.4.1 2.5 1.3 2.5 2.7 0 .6-.2 1.3-.4 1.8-.8 1.9-2.5 3.2-4.5 3.6-1.3-1.7-1.6-3.9-.6-5.8zm1.3 24.2c-1.8-2-1.9-4.9-.4-7.1 2 .4 3.7 1.8 4.6 3.6.3.6.4 1.2.4 1.8-.3 1.5-1.7 2.6-3.3 2.3-.5-.1-.9-.3-1.3-.6zm8.4-5.9c-.7 0-1.4-.2-2-.5-1.9-.8-3.3-2.4-3.8-4.3 1.1-.7 2.3-1.1 3.6-1 .8 0 1.5.2 2.3.5.6.3 1.1.6 1.7 1 1.1.8 1.3 2.3.5 3.4-.5.7-1.3 1.1-2.1 1z" fill="#00a818"/></svg>