<svg xmlns="http://www.w3.org/2000/svg" width="31.084" height="31.084"><path d="M27.843 6.042a15.542 15.542 0 10-2.798 21.798 15.542 15.542 0 002.798-21.798z" fill="#ff6c37"/><path d="M20.784 9.902l-6.554 6.605-1.852-1.904c6.45-6.45 7.098-5.867 8.406-4.701z" fill="#fff"/><path d="M14.23 16.688a.233.233 0 01-.155-.064l-1.865-1.865a.233.233 0 010-.324c6.36-6.36 7.227-6.061 8.73-4.702a.207.207 0 01.077.169.181.181 0 01-.065.168L14.4 16.624a.246.246 0 01-.169.064zm-1.528-2.085l1.528 1.529 6.217-6.217a1.399 1.399 0 00-1.839-.311c-1.127.505-2.94 2.046-5.906 5z" fill="#ff6c37"/><path d="M16.108 18.333l-1.787-1.826 6.554-6.476c1.761 1.723-.855 4.598-4.767 8.302z" fill="#fff"/><path d="M16.108 18.566a.272.272 0 01-.155-.064l-1.826-1.788a.272.272 0 010-.207.246.246 0 010-.168l6.553-6.554a.246.246 0 01.337 0 2.007 2.007 0 01.648 1.542c0 1.748-1.995 3.95-5.388 7.162a.272.272 0 01-.169.077zm-1.45-2.059l1.463 1.464c2.59-2.448 5.064-4.974 5.077-6.683a1.476 1.476 0 00-.336-.998z" fill="#ff6c37"/><path d="M12.43 14.642l1.295 1.295a.078.078 0 010 .117l-2.732.583a.259.259 0 01-.234-.44l1.594-1.58s.051 0 .077.025z" fill="#fff"/><path d="M10.928 16.896a.505.505 0 01-.428-.246.492.492 0 01.091-.583l1.58-1.593a.31.31 0 01.415 0l1.295 1.295a.285.285 0 01.077.285.298.298 0 01-.22.207l-2.732.583zm1.45-1.969l-1.463 1.464 2.422-.519zm.117-.117z" fill="#ff6c37"/><path d="M24.268 6.262a2.513 2.513 0 10-.453 3.964l-1.762-1.762z" fill="#fff"/><path d="M22.52 10.821a2.746 2.746 0 01-1.917-4.675 2.772 2.772 0 013.885 0 .22.22 0 010 .337L22.39 8.464l1.593 1.567a.22.22 0 01.065.195.233.233 0 01-.104.168 2.81 2.81 0 01-1.425.427zm0-5.025a2.28 2.28 0 00-1.607 3.886 2.267 2.267 0 002.513.479l-1.528-1.528a.207.207 0 01-.078-.169.207.207 0 01.078-.155l2.02-2.034a2.318 2.318 0 00-1.399-.479z" fill="#ff6c37"/><path d="M24.307 6.301l-2.215 2.202 1.761 1.761a2.681 2.681 0 00.493-.362 2.59 2.59 0 00-.04-3.6z" fill="#fff"/><path d="M23.815 10.459a.194.194 0 01-.156-.065l-1.761-1.761a.207.207 0 01-.078-.169.207.207 0 01.078-.155L24.1 6.146a.233.233 0 01.388 0 2.72 2.72 0 010 3.885 2.357 2.357 0 01-.518.415.207.207 0 01-.155.013zM22.39 8.464l1.463 1.464a2.487 2.487 0 00.285-.233 2.292 2.292 0 00.674-1.62 2.228 2.228 0 00-.557-1.476z" fill="#ff6c37"/><path d="M21.056 10.174a.945.945 0 00-1.295 0l-5.867 5.854.971.984 6.204-5.44a.958.958 0 00-.013-1.398z" fill="#fff"/><path d="M14.813 17.245a.233.233 0 01-.155-.064l-.984-.985a.233.233 0 010-.324l5.867-5.84a1.192 1.192 0 011.683 0 1.192 1.192 0 01.35.88 1.217 1.217 0 01-.402.855l-6.203 5.44a.22.22 0 01-.156.038zm-.686-1.217l.647.66 6.088-5.297a.712.712 0 00.246-.518.686.686 0 00-.22-.53.725.725 0 00-1.024 0z" fill="#ff6c37"/><path d="M9.348 22.698a.13.13 0 000 .155l.259 1.127a.324.324 0 01-.531.298L7.3 22.568 12.831 17h1.918l1.295 1.295a29.387 29.387 0 01-6.696 4.404z" fill="#fff"/><path d="M9.231 24.602a.557.557 0 01-.388-.169l-1.697-1.696a.207.207 0 01-.078-.169.207.207 0 01.078-.155l5.57-5.582a.22.22 0 01.116-.065h1.93a.233.233 0 01.155 0l1.295 1.295a.207.207 0 01.065.182.207.207 0 01-.078.168l-.104.09a31.731 31.731 0 01-6.644 4.262l.246 1.049a.557.557 0 01-.53.686zm-1.58-2.034L9.18 24.11a.078.078 0 00.104 0 .078.078 0 000-.091l-.259-1.127a.363.363 0 01.194-.414 31.848 31.848 0 006.476-4.17l-1.062-1.063h-1.736zm1.865.234z" fill="#ff6c37"/><path d="M5.967 23.902l1.296-1.295 1.994 1.995-3.173-.22a.259.259 0 01-.117-.48z" fill="#fff"/><path d="M9.296 24.796l-3.16-.22a.492.492 0 01-.311-.829l1.295-1.295a.233.233 0 01.324 0l1.981 1.981a.22.22 0 010 .26.246.246 0 01-.13.103zm-3.16-.725l2.59.168-1.425-1.334z" fill="#ff6c37"/><path fill="#fff" d="M12.314 17.556l1.515-1.502 1.1 1.1z"/><path d="M12.314 17.802a.22.22 0 01-.208-.13.22.22 0 010-.258l1.503-1.516a.246.246 0 01.337 0l1.1 1.101a.22.22 0 010 .233.22.22 0 01-.18.169l-2.591.401zm1.515-1.411l-.842.841 1.45-.22z" fill="#ff6c37"/><path d="M14.93 17.155l-1.826.233a.233.233 0 01-.22-.389l.945-.945z" fill="#fff"/><path d="M13.052 17.634a.48.48 0 01-.415-.246.466.466 0 01.078-.557l.946-.946a.246.246 0 01.336 0l1.101 1.101a.233.233 0 01-.142.402l-1.813.233zm0-.48l1.373-.168-.609-.608-.777.777zM24.32 7.79a.194.194 0 00-.246-.077.181.181 0 00-.078.246.557.557 0 01-.065.583.168.168 0 000 .246.142.142 0 00.104 0 .168.168 0 00.168-.052.894.894 0 00.117-.945z" fill="#ff6c37"/></svg>