<svg xmlns="http://www.w3.org/2000/svg" width="125.017" height="125.577"><path fill="#bd0012" d="M96.582 82.186l-70.804 42.04 91.68-6.218 7.06-92.442z" stroke="#fff"/><path fill="#bd0012" d="M117.608 117.944l-7.88-54.386-21.462 28.343z" stroke="#fff"/><path fill="#bd0012" d="M117.713 117.944l-57.727-4.532-33.898 10.696z" stroke="#fff"/><path fill="#bd0012" d="M26.166 124.122l14.42-47.244-31.732 6.787zm62.092-32.066l-13.27-51.975-37.974 35.595z" stroke="#fff"/><path fill="#bd0012" d="M121.508 40.814L85.61 11.496l-9.995 32.316z" stroke="#fff"/><path fill="#bd0012" d="M104.719 1.044L83.608 12.711 70.288.887zM.504 99.512l8.845-16.13-7.156-19.214z" stroke="#fff"/><path fill="#bd0012" d="M1.718 63.558l7.198 20.418 31.277-7.017 35.71-33.185L85.98 11.767 70.113.561 43.136 10.657c-8.5 7.905-24.993 23.547-25.588 23.84-.588.302-10.89 19.774-15.83 29.06z" stroke="#fff"/><path fill="#bd0012" d="M26.993 26.882C45.416 8.616 69.162-2.174 78.276 7.022c9.109 9.194-.55 31.538-18.972 49.795-18.42 18.26-41.875 29.644-50.98 20.449-9.116-9.188.25-32.128 18.67-50.385zm-.827 97.22l14.308-47.394 47.522 15.267c-17.183 16.112-36.292 29.73-61.83 32.127zm49.737-80.328l12.26 48.228c14.354-15.09 27.236-31.314 33.544-51.38z" stroke="#fff"/><path fill="#bd0012" d="M121.582 40.864c4.882-14.735 6.008-35.87-17.012-39.794L85.679 11.502zM.504 99.299c.677 24.315 18.222 24.679 25.696 24.893L8.935 83.876z" stroke="#fff"/><path fill="#bd0012" d="M75.903 43.774c11.029 6.778 33.385 20.373 33.836 20.624.7.394 9.584-14.978 11.598-23.665z" stroke="#fff" stroke-linejoin="round"/><path fill="#bd0012" d="M40.456 76.71l19.128 36.902c11.312-6.133 20.167-13.606 28.28-21.611zM8.86 83.927l-2.711 32.27c5.115 6.986 12.15 7.591 19.53 7.048-5.34-13.288-16.005-39.859-16.82-39.318zm76.707-72.341l38 5.334c-2.028-8.596-8.256-14.14-18.871-15.875z" stroke="#fff"/></svg>