<svg xmlns="http://www.w3.org/2000/svg" width="156.924" height="151.521"><g transform="translate(-197.47 -51.02)"><rect width="143.039" height="141.721" x="198.47" y="59.819" ry="13.753" rx="0" fill="#78909c" stroke="#78909c" stroke-width="2" stroke-linejoin="round"/><path d="M323.55 60.742l-28.48 26.201-19.116-18.785-23.73 23.07 40.208 46.141 49.108-42.75V74.494a13.721 13.721 0 00-13.752-13.752z" fill="#596f79"/><path d="M275.624 79.363l19.115 19.116 51.415-47.46 8.24 20.105-61.632 54.381-29.003-33.288z" fill="#66bb6a"/><path d="M254.464 149.49s2.796-15.847-19.11-16.313c-21.907-.466-24.704 10.254-24.238 15.848.466 5.593 3.395 11.61 20.975 18.178 16.93 6.324 5.2 13.273 3.263 13.517-2.313.291-11.65.009-11.653-9.789 0-1.473-14.915-.932-14.915-.932s-1.865 20.509 26.102 20.975c27.966.466 20.042-23.305 18.177-25.636-1.864-2.33-9.013-7.191-13.983-8.39-4.454-1.074-14.085-4.106-13.517-8.856 0 0 .66-4.486 5.594-5.127 2.357-.306 8.632-.683 10.459 6.622.174.7 12.846-.096 12.846-.096zm21.207 24.82h25.17s2.563-25.402-17.712-25.169c-20.555.236-20.275 15.615-20.275 23.305 0 9.116 7.69 16.547 18.877 18.411 11.186 1.865 18.41-7.224 18.41-7.224l-6.525-7.225s-1.864 4.894-9.089 4.428c-7.224-.466-8.856-6.525-8.856-6.525z" fill="#fff"/><path d="M276.138 165.455h12.817s.233-6.992-6.292-6.992c-6.525 0-6.525 6.992-6.525 6.992z" fill="#78909c"/></g></svg>